# xmcd CD database file
#
# Track frame offsets:
#	150
#	23202
#	45733
#	67827
#	92468
#	111949
#	132353
#	152038
#	171869
#	193050
#	212088
#	232062
#	251925
#	269174
#
# Disc length: 3817 seconds
#
# Revision: 0
# Processed by: cddbd v1.5.2PL0 Copyright (c) Steve Scherf et al.
# Submitted via: CDex 1.70beta2
#
DISCID=ce0ee70e
DTITLE=Wolfgang Buschner liest Karl May - Der Ölprinz
DYEAR=2006
DGENRE=Hörbuch Karl May
TTITLE0=Der Ölprinz-CD10-01
TTITLE1=Der Ölprinz-CD10-02
TTITLE2=Der Ölprinz-CD10-03
TTITLE3=Der Ölprinz-CD10-04
TTITLE4=Der Ölprinz-CD10-05
TTITLE5=Der Ölprinz-CD10-06
TTITLE6=Der Ölprinz-CD10-07
TTITLE7=Der Ölprinz-CD10-08
TTITLE8=Der Ölprinz-CD10-09
TTITLE9=Der Ölprinz-CD10-10
TTITLE10=Der Ölprinz-CD10-11
TTITLE11=Der Ölprinz-CD10-12
TTITLE12=Der Ölprinz-CD10-13
TTITLE13=Der Ölprinz-CD10-14 bws
EXTD=YEAR: 2006
EXTT0=
EXTT1=
EXTT2=
EXTT3=
EXTT4=
EXTT5=
EXTT6=
EXTT7=
EXTT8=
EXTT9=
EXTT10=
EXTT11=
EXTT12=
EXTT13=
PLAYORDER=
